<svg width="127" height="108" viewBox="0 0 127 108" fill="none" xmlns="http://www.w3.org/2000/svg">
    <path d="M63.4219 20.2067C63.4219 15.1128 65.4454 10.2275 69.0474 6.62552C72.6494 3.02356 77.5347 1 82.6286 1H121.042C122.316 1 123.537 1.50589 124.437 2.40638C125.338 3.30687 125.844 4.5282 125.844 5.80168V82.6286C125.844 83.9021 125.338 85.1234 124.437 86.0239C123.537 86.9244 122.316 87.4303 121.042 87.4303H82.6286C77.5347 87.4303 72.6494 89.4538 69.0474 93.0558C65.4454 96.6578 63.4219 101.543 63.4219 106.637"
          stroke="url(#paint0_linear_247_2140)" stroke-width="2" stroke-linecap="round" stroke-linejoin="round"/>
    <path d="M1 82.6286C1 83.9021 1.50589 85.1234 2.40638 86.0239C3.30687 86.9244 4.5282 87.4303 5.80168 87.4303H44.2151C49.3091 87.4303 54.1944 89.4538 57.7964 93.0558C61.3983 96.6578 63.4219 101.543 63.4219 106.637V20.2067C63.4219 15.1128 61.3983 10.2275 57.7964 6.62552C54.1944 3.02356 49.3091 1 44.2151 1H5.80168C4.5282 1 3.30687 1.50589 2.40638 2.40638C1.50589 3.30687 1 4.5282 1 5.80168V82.6286Z"
          stroke="url(#paint1_linear_247_2140)" stroke-width="2" stroke-linecap="round" stroke-linejoin="round"/>
    <defs>
        <linearGradient id="paint0_linear_247_2140" x1="94.6328" y1="1" x2="94.6328" y2="106.637"
                        gradientUnits="userSpaceOnUse">
            <stop stop-color="#3AB8EB"/>
            <stop offset="0.352083" stop-color="#F9784B"/>
            <stop offset="0.732292" stop-color="#FDBF0F"/>
            <stop offset="1" stop-color="white"/>
        </linearGradient>
        <linearGradient id="paint1_linear_247_2140" x1="32.2109" y1="1" x2="32.2109" y2="106.637"
                        gradientUnits="userSpaceOnUse">
            <stop stop-color="#3AB8EB"/>
            <stop offset="0.352083" stop-color="#F9784B"/>
            <stop offset="0.732292" stop-color="#FDBF0F"/>
            <stop offset="1" stop-color="white"/>
        </linearGradient>
    </defs>
</svg>
