<svg width="28" height="24" viewBox="0 0 28 24" fill="none" xmlns="http://www.w3.org/2000/svg">
    <path d="M23.75 22.1157C25.5449 22.1157 27 20.7652 27 19.0992C27 17.4332 25.5449 16.0826 23.75 16.0826C21.9551 16.0826 20.5 17.4332 20.5 19.0992C20.5 20.7652 21.9551 22.1157 23.75 22.1157Z"
          stroke="#3D3C3C" stroke-width="2" stroke-linecap="round" stroke-linejoin="round"/>
    <path d="M6.41667 0.999969H19.4167C20.5659 0.999969 21.6681 1.42372 22.4808 2.178C23.2935 2.93228 23.75 3.95531 23.75 5.02202C23.75 6.08873 23.2935 7.11176 22.4808 7.86604C21.6681 8.62032 20.5659 9.04407 19.4167 9.04407H6.41667C4.98008 9.04407 3.60233 9.57376 2.5865 10.5166C1.57068 11.4595 1 12.7382 1 14.0716C1 15.405 1.57068 16.6838 2.5865 17.6267C3.60233 18.5695 4.98008 19.0992 6.41667 19.0992H20.5"
          stroke="#3D3C3C" stroke-width="2" stroke-linecap="round" stroke-linejoin="round"/>
</svg>
