<svg width="31" height="32" viewBox="0 0 31 32" fill="none" xmlns="http://www.w3.org/2000/svg">
    <path d="M25.8832 7H5.36304" stroke="#676767" stroke-width="1.5" stroke-linecap="round" stroke-linejoin="round"/>
    <path d="M12.825 13V21" stroke="#676767" stroke-width="1.5" stroke-linecap="round" stroke-linejoin="round"/>
    <path d="M18.4214 13V21" stroke="#676767" stroke-width="1.5" stroke-linecap="round" stroke-linejoin="round"/>
    <path d="M24.0178 7V26C24.0178 26.2652 23.9195 26.5196 23.7446 26.7071C23.5696 26.8946 23.3324 27 23.085 27H8.16125C7.91387 27 7.67663 26.8946 7.50171 26.7071C7.32679 26.5196 7.22852 26.2652 7.22852 26V7"
          stroke="#676767" stroke-width="1.5" stroke-linecap="round" stroke-linejoin="round"/>
    <path d="M20.2868 7V5C20.2868 4.46957 20.0903 3.96086 19.7404 3.58579C19.3906 3.21071 18.9161 3 18.4214 3H12.8249C12.3302 3 11.8557 3.21071 11.5059 3.58579C11.156 3.96086 10.9595 4.46957 10.9595 5V7"
          stroke="#676767" stroke-width="1.5" stroke-linecap="round" stroke-linejoin="round"/>
</svg>
